<svg xmlns="http://www.w3.org/2000/svg" version="1.1" xmlns:xlink="http://www.w3.org/1999/xlink" xmlns:svgjs="http://svgjs.com/svgjs" width="1440" height="560" preserveAspectRatio="none" viewBox="0 0 1440 560"><g mask="url(&quot;#SvgjsMask1013&quot;)" fill="none"><rect width="1440" height="560" x="0" y="0" fill="rgba(53, 38, 26, 1)"></rect><path d="M146.67 0C213.79 38.35 223.44 80 280 80C313.84 80 292.37 20.05 327.46 0C362.37 -19.95 373.73 0 420 0C490 0 490 0 560 0C630 0 630 0 700 0C770 0 770 0 840 0C910 0 910 0 980 0C1050 0 1050 0 1120 0C1190 0 1190 0 1260 0C1330 0 1330 0 1400 0C1470 0 1505 -35 1540 0C1575 35 1540 70 1540 140C1540 210 1540 210 1540 280C1540 350 1540 350 1540 420C1540 490 1565.38 515.38 1540 560C1525.57 585.38 1486.09 582.62 1460.39 560C1416.09 521.02 1425.7 436.8 1400 436.8C1375.76 436.8 1399.9 525.33 1360.51 560C1329.9 586.93 1310.26 560 1260 560C1203.19 560 1164.85 590.97 1146.38 560C1123.1 520.97 1183.71 486.79 1176.49 420C1170.52 364.85 1143.41 316.13 1120 316.13C1098.39 316.13 1113.27 373.31 1086.46 420C1043.27 495.24 1040.01 555.45 980 560C916.78 564.79 888.61 438.67 840 438.67C807.65 438.67 853.83 529.01 818.07 560C783.83 589.68 759.04 560 700 560C630 560 630 560 560 560C490 560 490 560 420 560C350 560 350 560 280 560C210 560 210 560 140 560C70 560 38.89 591.11 0 560C-31.11 535.11 -5.07 502.89 0 448C1.39 432.89 2.81 431.49 12.92 420C72.81 351.94 76.29 354.28 140 288.89C144.5 284.28 149.33 285.43 149.33 280C149.33 269.78 151.01 259.91 140 257.6C76.35 244.27 39.44 281.85 0 248.72C-30.56 223.05 0 194.36 0 140C0 70 -35 35 0 0C35 -35 70 0 140 0C143.33 0 143.79 -1.65 146.67 0" stroke="rgba(93, 67, 46, 1)" stroke-width="2"></path><path d="M1400 68.57C1373.1 68.57 1340.68 108.49 1340.68 140C1340.68 164.32 1371.95 180.23 1400 180.23C1422.95 180.23 1442.68 163.08 1442.68 140C1442.68 107.25 1424.1 68.57 1400 68.57" stroke="rgba(93, 67, 46, 1)" stroke-width="2"></path><path d="M560 217C534.57 230.01 540.31 248.5 540.31 280C540.31 311.5 543.35 315.21 560 343C585.28 385.21 585.01 392.33 624.17 420C655.01 441.79 661.52 441.93 700 441.93C760.1 441.93 817.17 453.71 821.33 420C827.17 372.75 760.81 354.56 720 280C700.14 243.72 729.85 210.08 700 198.33C649.85 178.58 614.42 189.17 560 217" stroke="rgba(93, 67, 46, 1)" stroke-width="2"></path><path d="M980 253.95C965.44 253.95 957.6 268.71 957.6 280C957.6 288.65 967.55 293.83 980 293.83C1013.75 293.83 1050 289.74 1050 280C1050 269.8 1011.64 253.95 980 253.95" stroke="rgba(93, 67, 46, 1)" stroke-width="2"></path><path d="M61.86 0C108.07 50.07 145.09 85.79 129.23 140C114.16 191.53 43.54 211.49 0 211.49C-21.08 211.49 0 175.75 0 140C0 70 -21.45 48.55 0 0C9.48 -21.45 43.46 -19.93 61.86 0" stroke="rgba(93, 67, 46, 1)" stroke-width="2"></path><path d="M309.17 140C350.86 72 340.89 57.97 386.78 0C396.3 -12.03 403.39 0 420 0C460.84 0 482.95 -25.62 501.67 0C534.11 44.38 526.28 70.79 522.31 140C518.26 210.79 512.2 213.33 485.63 280C461.05 341.67 469.49 376.96 420 396.67C366.67 417.91 342.72 354.39 280 361.89C245.22 366.05 225 390.94 225 420C225 449.06 245.52 475.31 280 478.11C343.02 483.23 362.25 416.37 420 435.85C483.66 457.32 522.81 522.1 522.81 560C522.81 584.17 471.4 560 420 560C350 560 350 560 280 560C210 560 210 560 140 560C72.06 560 21.32 592.88 4.12 560C-15.3 522.88 26.47 483.93 66.77 420C94.41 376.15 102.69 381.52 140 344.44C173.14 311.52 178.16 315.9 207.67 280C248.16 230.75 242.42 225.99 280 174.15C293.17 155.99 297.47 159.08 309.17 140" stroke="rgba(93, 67, 46, 1)" stroke-width="2"></path><path d="M700 98.21C640.47 98.21 584.56 27.87 584.56 0C584.56 -21.23 642.28 0 700 0C767.14 0 834.29 -21.93 834.29 0C834.29 27.17 765.34 98.21 700 98.21" stroke="rgba(93, 67, 46, 1)" stroke-width="2"></path><path d="M931.72 140C882.99 76.41 834.44 38.67 847.78 0C858.58 -31.33 913.89 0 980 0C1050 0 1050 0 1120 0C1190 0 1190 0 1260 0C1326.66 0 1388.77 -29.86 1393.33 0C1399.45 40.14 1279.51 78.75 1281.36 140C1282.84 188.98 1343.9 220.46 1400 220.46C1445.91 220.46 1479.26 188.14 1485.37 140C1493.26 77.91 1412.3 40.22 1428 0C1439.62 -29.78 1515.11 -31.11 1540 0C1571.11 38.89 1540 70 1540 140C1540 210 1540 210 1540 280C1540 350 1540 350 1540 420C1540 490 1545.09 495.09 1540 560C1539.6 565.09 1529.44 565.09 1529.02 560C1523.61 495.09 1560.75 468.3 1528.33 420C1496.24 372.2 1462.89 367.8 1400 367.8C1349.05 367.8 1319.36 377.38 1300.65 420C1277.18 473.48 1330.21 509.83 1315.64 560C1309.88 579.83 1287.82 560 1260 560C1228.55 560 1200.43 581.1 1197.1 560C1189.38 511.1 1244.04 487.9 1237.89 420C1231.36 347.9 1177.62 351.93 1171.74 280C1166.18 211.93 1227.96 202.83 1215 140C1202.09 77.41 1167.02 29.17 1120 29.17C1073.66 29.17 1078.11 88.96 1028.28 140C1008.11 160.66 1004.14 172.56 980 172.56C955.86 172.56 949.1 162.69 931.72 140" stroke="rgba(93, 67, 46, 1)" stroke-width="2"></path><path d="M791.43 280C791.43 247.56 815.87 213.89 840 213.89C863.96 213.89 857.6 253.61 887.6 280C927.6 315.18 939.39 302.03 980 337.04C1020.59 372.03 1050 377.63 1050 420C1050 465.14 1018.44 512.05 980 512.05C936.11 512.05 926.53 470.76 885.35 420C856.53 384.48 865.64 377.72 840 339.5C818.68 307.72 791.43 310.37 791.43 280" stroke="rgba(93, 67, 46, 1)" stroke-width="2"></path><path d="M598.39 560C598.39 538.93 651.93 484.1 700 484.1C740.68 484.1 775.9 537.77 775.9 560C775.9 575.72 737.95 560 700 560C649.19 560 598.39 576.88 598.39 560" stroke="rgba(93, 67, 46, 1)" stroke-width="2"></path><path d="M0 28.97C16.53 28.97 61.92 93.33 61.92 140C61.92 165.98 20.86 174.26 0 174.26C-10.1 174.26 0 157.13 0 140C0 84.49 -14.43 28.97 0 28.97" stroke="rgba(93, 67, 46, 1)" stroke-width="2"></path><path d="M382.08 140C406.61 105.78 401.63 64.17 420 64.17C438.09 64.17 452.97 100.04 455 140C458.44 207.96 446.06 211.1 430.94 280C428.56 290.82 430.37 298.35 420 299.44C354.9 306.28 346.9 304.29 280 295.85C269.9 294.57 266 288.36 266 280C266 270.19 272.09 269.06 280 259.51C330.13 199.06 336.61 203.45 382.08 140" stroke="rgba(93, 67, 46, 1)" stroke-width="2"></path><path d="M700 45.97C672.14 45.97 645.96 13.05 645.96 0C645.96 -9.94 672.98 0 700 0C731.43 0 762.86 -10.27 762.86 0C762.86 12.72 730.59 45.97 700 45.97" stroke="rgba(93, 67, 46, 1)" stroke-width="2"></path><path d="M980 52.5C961.14 52.5 945 16.88 945 0C945 -9.37 962.5 0 980 0C1001.72 0 1023.45 -10.22 1023.45 0C1023.45 16.03 1000.37 52.5 980 52.5" stroke="rgba(93, 67, 46, 1)" stroke-width="2"></path><path d="M1528.05 140C1540.21 126.48 1536.93 105 1540 105C1542.91 105 1540 122.5 1540 140C1540 210 1540 210 1540 280C1540 310.73 1560.96 337.2 1540 341.46C1490.96 351.43 1470.95 316.95 1400 308.47C1330.95 300.22 1322.46 319.69 1260 308C1246.38 305.45 1247.83 294 1247.83 280C1247.83 266 1246.4 253.73 1260 252C1322.48 244.07 1340.55 285.53 1400 260.69C1474.58 229.53 1470.21 204.33 1528.05 140" stroke="rgba(93, 67, 46, 1)" stroke-width="2"></path><path d="M120.62 420C123.34 406.78 129.94 400 140 400C150.88 400 152.02 409.21 162.5 420C222.02 481.28 210.61 522.08 280 544.15C339.36 563.03 357.95 496.66 420 501.89C452.02 504.59 468.13 542.26 468.13 560C468.13 571.32 444.07 560 420 560C350 560 350 560 280 560C210 560 210 560 140 560C123.53 560 108.9 573.28 107.06 560C99.21 503.28 106.87 486.78 120.62 420" stroke="rgba(93, 67, 46, 1)" stroke-width="2"></path><path d="M934.65 420C934.65 399.54 958.82 380.25 980 380.25C998.27 380.25 1013.54 399.7 1013.54 420C1013.54 441.63 998.42 464.11 980 464.11C958.97 464.11 934.65 441.47 934.65 420" stroke="rgba(93, 67, 46, 1)" stroke-width="2"></path><path d="M654.84 560C654.84 550.64 678.64 526.27 700 526.27C718.08 526.27 733.73 550.12 733.73 560C733.73 566.99 716.87 560 700 560C677.42 560 654.84 567.5 654.84 560" stroke="rgba(93, 67, 46, 1)" stroke-width="2"></path><path d="M1247.83 560C1247.83 545.36 1254.24 521.82 1260 521.82C1265.71 521.82 1270.77 544.99 1270.77 560C1270.77 564.08 1265.39 560 1260 560C1253.91 560 1247.83 564.45 1247.83 560" stroke="rgba(93, 67, 46, 1)" stroke-width="2"></path></g><defs><mask id="SvgjsMask1013"><rect width="1440" height="560" fill="#ffffff"></rect></mask></defs></svg>